<svg xmlns="http://www.w3.org/2000/svg" xml:space="preserve" viewBox="0 0 56.745 56.745"><path fill="#88c057" d="M28.902673 18.394199c-.181739-.046106-.410491-.171915-.508329-.27957-.244853-.269419-1.045284-1.923745-1.27316-2.631381-.279417-.867701-2.578174-4.427969-3.284443-5.086898-.911039-.8499829-1.834235-1.1441573-2.960507-.9433592-1.09882.1958986-1.136116.1708229-1.00403-.675117.30534-1.1403339-.550895-.9192441-1.320064-.5634606-2.477408.7531856-4.106134 2.6842858-4.203381 1.4667786-.105579-.6671662-.439973-.3480015-.950731.2131246-.734736.6229646-1.669082.9995126-1.957179.7887576-.566195-.414204-.425551-2.2083129.251808-3.2121552.613097-.908602.418032-.9501487-1.130319-.2407499-.7714414.3534467-1.2692257.4594146-1.6769045.3360837-.4762121-.1682412-.4638671-.6738902-.4906742-1.0561312.0309177-1.2215909 1.1435868-2.273415 1.7049847-3.0740641.355682-.5072632.49008-.9137038-.012108-1.1986178-.073122-.0414855-.1597402-.0803944-.2611373-.1166629-.1637347-.0564645-.3055001-.1297722-.4302958-.2448234-.2033106-.2844162.1965504-.4605898.8235871-.4063757 1.63341.165951 3.852119.4633486 2.637438-.8291274-.292925-.36239402.369538-.41773056.369538-.41773056.27636-.030544.554825-.0372764.804145-.05335.724929-.0392672 1.143443.26937355 1.608787.67502541 1.387405 1.22641425 3.077423 3.02379655 2.330719.25170695.01428-1.29338816.903712-.3838555 1.319386.1447904 1.622511 2.2498235 1.797566 4.8397942 1.772554 1.1616184-.10067-.6359497.376214-.4622311.376214-.4622311.135389.09622.317895.2487949.56398.4649478 2.062497 1.8116155 3.682843 4.2283735 4.891338 7.295467.281554.7145596.604548 1.4813846.717767 1.7040606.113231.222669.571842 1.840922 1.019167 3.59611.244336 1.453024 1.933701 3.398633.271855 3.393327z"/><path fill="none" stroke="#659c35" stroke-linecap="round" stroke-opacity=".98823529" stroke-width="1.09278178" d="M13.245928 3.6796534c2.213653 1.4140859 3.411246 1.7275201 5.86143 1.6969491 1.350551.1135912 3.715327 1.6892359 4.257119 2.3003433" paint-order="stroke fill markers"/><path fill="#d6195f" d="M24.874743 55.417264c-3.917187-4.095521-7.001287-4.952025-11.841189-6.459926C6.91673 47.337381 1.6464033 40.970927.23453956 33.496382c-.40146849-2.125423-.26968843-6.381134.25910126-8.367413C2.2302363 18.605881 6.8114383 14.129308 13.235891 12.677756c1.224532-.276672 2.296263-.376003 4.098569-.379868 2.126846-.0046 3.017565.08781 5.041745.522903 15.105332 1.493914 3.040927 32.454612 5.897746 36.585158-1.483246.738566-1.258711 4.492702-2.103009 6.113308l-.41902 1.006657c.0305.09779-.582756-.739355-.877179-1.10865z"/><path fill="#436b1c" d="M39.031733 33.687309c-.634571.173971-1.341315.02526-1.840909-.463921-.297133-.290888-.471475-.654729-.52584-1.032603-.03094-.210447-.10217-.413414-.208087-.593932-3.672444 3.782464-5.800405 9.438153-5.800405 9.438153.281961-4.451824.589809-7.331796.212066-10.211668-.777043.382548-1.653443.60048-2.58327.60048-.905458 0-1.757488-.211385-2.519534-.575227 1.752113 7.887142.703275 16.037725-.05993 24.015329-.265298 1.84012-.261941 1.881079 1.619085 1.881079h2.894083c.72174 0 1.323504-.539684 1.405051-1.254274.430233-3.793688 1.758424-19.653099 9.135181-19.653099-.252141-.159941-.492097-.344199-.713305-.56026-.471474-.464858-.807038-1.010154-1.014186-1.590057z"/><path fill="#88c057" d="M29.494823 17.115039c.338923-.867024 1.122134-1.421564 1.997012-1.538839-.06943-.82618.03657-1.676444.357438-2.497286 1.142116-2.921742 4.4842-4.3496573 7.464582-3.1895825.778933.3031895 1.453319.7554355 2.008115 1.3077105 1.217944-.765829 2.782609-.967003 4.242673-.398692 1.654797.644107 2.742379 2.103528 2.97057 3.720385 1.044342-.247086 2.17622-.193044 3.25817.228091 2.79438 1.087677 4.191661 4.189655 3.120736 6.929278-.08005.204775-.175324.399605-.277095.587892 1.723815 1.443024 2.43236 3.841199 1.5825 6.015296-.662857 1.695708-2.116248 2.8528-3.789567 3.231552.250703.915814.22532 1.9099-.144601 2.85622-.927862 2.373643-3.643356 3.534432-6.06486 2.591894-1.013836-.394624-1.810658-1.097326-2.332721-1.952107-1.50464.96647-3.451756 1.224594-5.268102.517604-1.919391-.747098-3.215138-2.386935-3.593831-4.239071-1.064935.827393-2.53978 1.089632-3.905534.558031-2.049503-.797744-3.073784-3.072843-2.288644-5.081377.176105-.450505.431356-.846107.739841-1.184846-1.114868-1.070462-1.543218-2.726072-.954618-4.23182.278632-.71279.750386-1.294187 1.332145-1.7143-.585824-.678804-.798921-1.634195-.454209-2.516033z"/><path fill="#659c35" d="M47.92156 25.771268c.105662.04113.220564.06377.341363.0636 2.533131-.0019 4.59338-2.060286 4.591462-4.588014-.0022-2.526858-2.060664-4.581014-4.598352-4.582882-.517313.00044-.937553.419168-.936239.935716.0001.517081.418657.934002.938248.935454 1.500592-.0012 2.721159 1.215794 2.721855 2.711974.0012 1.497391-1.218392 2.715356-2.71777 2.716051-.517312.00044-.937552.419166-.936238.935716-.000748.398283.247246.736768.595671.872388zm-13.136007 2.916696c1.49412.581567 3.252398.366401 4.580933-.715802.401363-.326681.461566-.915667.134186-1.316174-.325634-.399827-.917624-.460581-1.318114-.133559-.563502.458339-1.27133.670756-1.994493.598097-.720735-.07371-1.373-.422981-1.832661-.984409-.459661-.561429-.672529-1.267748-.599376-1.99024.07368-.721282.424227-1.370943.986514-1.828752.401364-.326683.461566-.915668.134186-1.316175-.325975-.398957-.917625-.460582-1.318116-.133561-.951554.774141-1.543326 1.871044-1.666686 3.090032-.123361 1.218988.236256 2.412125 1.012392 3.360778.515983.63355 1.168668 1.092409 1.881235 1.369765zm5.229389-3.382931c-.625244-.243366-1.204867-.626601-1.691698-1.14941-1.723345-1.853461-1.614511-4.759745.242038-6.479756.379402-.35029.971046-.32983 1.325045.04891.351911.378933.329852.970718-.04902 1.322218-1.099151 1.017882-1.164059 2.738512-.14313 3.835661 1.020738 1.095063 2.744365 1.161576 3.843855.142824.37853-.350629.970515-.33104 1.325045.04891.351913.378934.329853.970719-.04902 1.32222-1.33505 1.235281-3.212943 1.527375-4.80312.908419zm4.400521 7.348106c.582453.226713 1.21104.332836 1.853983.307002 2.531049-.102118 4.507418-2.239322 4.406296-4.765506-.02132-.514293-.452793-.916166-.973426-.896939-.517139.02059-.919828.456186-.899197.972222.05952 1.494981-1.1106 2.761328-2.608776 2.820721-.727683.02899-1.420909-.225778-1.954122-.717447-.534084-.492007-.844106-1.160844-.873499-1.886106-.02132-.514293-.454008-.915635-.973427-.896939-.517139.02059-.919827.456184-.899197.972222.04796 1.223424.571533 2.354885 1.474412 3.18521.428819.395817.918641.699921 1.446953.90556z"/><path fill="#659c35" d="M35.892462 13.877049c-.0768.126356-.148478.256908-.214239.392137-.533685 1.103471-.604438 2.347107-.199907 3.503183.170305.488137.70486.74494 1.194039.574998.490957-.171055.746218-.70464.576228-1.191491-.239611-.684328-.19782-1.420407.118138-2.073687.316812-.663704.868892-1.144538 1.553394-1.383325 1.415697-.49307 2.970276.255287 3.464399 1.667966.170305.488138.704859.744941 1.194038.574998.490955-.171056.746218-.704641.576227-1.191494-.834103-2.38638-3.459707-3.6506-5.851188-2.818275-1.017499.355578-1.859899 1.038103-2.411129 1.94499zm-17.315703 4.560282c.152266-.06521.306217-.116739.461617-.161669-.146775-1.642393.75735-3.255234 2.369691-3.94385 1.257505-.537589 2.648885-.385551 3.742374.284038.355445-.605586.899581-1.109615 1.601091-1.40882 1.761306-.753119 3.825655.0504 4.611601 1.795005.05094.114199.0845.231676.121704.347558.0037.0757.000619.152844.0066.227478-.874538.116404-1.65809.671814-1.997012 1.538839-.344713.881838-.131615 1.837229.455422 2.515502-.580886.420453-1.053173 1.000639-1.332145 1.7143-.5886 1.505746-.160249 3.161359.954617 4.23182-.308484.338738-.563735.73434-.739839 1.184845-.785142 2.008536.23914 4.283634 2.288643 5.081377.479411.186604.972032.269922 1.456633.270805-.06551.03374-.115548.08453-.183183.11343-.52895.225817-1.089808.283601-1.624022.201161-.0497.65733-.446733 1.263794-1.101244 1.543144-.642712.274907-1.356511.157703-1.884001-.235358-.404175.465141-.914506.851811-1.524105 1.111497-2.167995.926129-4.70826-.06264-5.675212-2.209002-.252523-.561121-.36947-1.144766-.370238-1.719333-1.057002-.232719-1.99641-.938714-2.470564-1.9907-.536279-1.191622-.336519-2.513396.405271-3.47159-.687094-.412013-1.261044-1.02596-1.612059-1.80613-.906084-2.011231.0065-4.345664 2.038301-5.214347z"/><path fill="#88c057" d="M23.380437 30.443706c.407075.113302.83472.150419 1.267432.107039.91124-.09209 1.732241-.531935 2.311655-1.240488.244743-.298655.199969-.738781-.09952-.982327-.301991-.244969-.741223-.199055-.984427.09931-.343074.419157-.8292.679622-1.369006.734511-.54029.05402-1.06818-.10522-1.488421-.446889-.420051-.342343-.681076-.827433-.735407-1.365898-.05434-.538465.103909-1.065606.447656-1.484575.244742-.298656.199968-.73878-.09952-.982328-.301504-.24411-.740359-.199541-.984427.09931-.579226.707881-.848496 1.598437-.756355 2.5084.09211.909969.532883 1.72922 1.242952 2.3074.373764.302641.79717.521241 1.247379.646547zm-1.726106-12.761994c-.279119.316649-.498408.684881-.64724 1.092639-.312764.859008-.27242 1.787997.115416 2.616587.163248.349718.579967.500684.929909.337317.352312-.164999.501689-.579718.338036-.927926-.229296-.490448-.253204-1.040524-.06824-1.549538.185961-.509071.559037-.914346 1.050006-1.143614.491495-.228806 1.04275-.252665 1.552386-.06757.509638.185094.916699.556334 1.145533 1.047305.163248.349718.579968.500684.92991.337318.351325-.164935.501753-.578733.338036-.927928-.38731-.82813-1.074167-1.457039-1.935553-1.769551-.861377-.31254-1.792343-.272301-2.622706.114709-.435548.204453-.816809.490032-1.125502.840233z"/><path fill="#ff556e" d="M6.9383505 22.322868c-.3061734.0078-.6066953.152427-.8287947.434762-1.4194147 1.800083-2.0695608 4.13624-1.8792225 6.756567.065473.90138.3113661 1.78383.731753 2.620382.2432949.485092.688801.74639 1.1294042.714053.1760418-.01296.3511918-.07421.5136154-.184936.5666224-.386978.7493695-1.250123.4077054-1.930258-.2331659-.463808-.3618587-.920052-.3961974-1.392783-.1333651-1.835947.2898267-3.392621 1.2607118-4.623338.445073-.564602.4109236-1.461014-.0771374-2.002734-.2444204-.270251-.5556639-.399467-.8618378-.391715Zm4.5775345-4.491993c-.383601.223161-.757306.465006-1.116923.721248-.53757.383445-.662393 1.130946-.278947 1.668516.320014.448588.892053.60835 1.385535.426312.09821-.03622.194011-.08359.28298-.147369.299414-.214052.612344-.416006.933154-.603993.570337-.332816.762507-1.063968.428878-1.634006-.332266-.571347-1.060691-.774924-1.634678-.430712z"/></svg>